<svg xmlns="http://www.w3.org/2000/svg" aria-hidden="true" style="position:absolute;width:0;height:0;overflow:hidden">
   <defs>
      <symbol id="icon-search" viewBox="0 0 32 32">
         <path
            d="M20.055 18.978c1.204-1.457 1.964-3.327 1.964-5.386 0-4.626-3.77-8.396-8.396-8.396s-8.396 3.77-8.396 8.396 3.77 8.396 8.396 8.396a8.332 8.332 0 0 0 5.386-1.964l6.527 6.527c.158.158.349.222.539.222s.38-.063.539-.222a.785.785 0 0 0 0-1.077l-6.558-6.495zm-6.463 1.489c-3.802 0-6.875-3.073-6.875-6.875s3.073-6.875 6.875-6.875 6.875 3.073 6.875 6.875-3.073 6.875-6.875 6.875z" />
      </symbol>
      <symbol id="icon-login" viewBox="0 0 26 32">
         <path fill="#fff" style="fill: var(--color1, #fff)"
            d="M12.637 17.664h0.199c1.818-0.032 3.289-0.685 4.374-1.934 2.39-2.749 1.992-7.464 1.949-7.914-0.156-3.378-1.72-4.995-3.009-5.749-0.963-0.563-2.087-0.868-3.339-0.893h-0.106c-0.689 0-2.042 0.114-3.339 0.868-1.302 0.754-2.891 2.371-3.047 5.774-0.043 0.449-0.441 5.165 1.948 7.915 1.081 1.248 2.552 1.901 4.37 1.933zM7.981 7.944c0.001-0.006 0.002-0.013 0.003-0.021v-0c0.205-4.543 3.363-5.030 4.717-5.030h0.074c1.675 0.038 4.525 0.735 4.717 5.031 0 0.019 0 0.038 0.007 0.051 0.006 0.043 0.44 4.353-1.533 6.623-0.782 0.899-1.825 1.343-3.196 1.355h-0.063c-1.365-0.014-2.414-0.456-3.19-1.357-1.967-2.257-1.543-6.584-1.539-6.624 0-0.010 0.001-0.021 0.004-0.029zM25.489 25.465v0.018c0.006 0.33 0.013 2.022-0.298 2.866-0.066 0.166-0.178 0.302-0.32 0.396l-0.003 0.002-0.003 0.001c-0.223 0.145-4.678 3.027-12.111 3.027-7.466 0-11.929-2.902-12.114-3.029-0.147-0.095-0.259-0.232-0.321-0.394l-0.002-0.006c-0.33-0.849-0.323-2.541-0.317-2.87v-0.019c0.007-0.050 0.007-0.102 0.007-0.159v-0.010c0.038-1.252 0.125-4.174 2.81-5.117 0.015-0.005 0.036-0.012 0.057-0.017l0.005-0.001c2.81-0.729 5.126-2.376 5.151-2.396 0.134-0.097 0.301-0.155 0.482-0.155 0.284 0 0.534 0.143 0.683 0.361l0.002 0.003c0.096 0.137 0.153 0.308 0.153 0.491 0 0.287-0.14 0.542-0.355 0.699l-0.030 0.021c-0.301 0.206-2.687 1.848-5.639 2.623-1.447 0.526-1.607 2.104-1.65 3.548-0.001 0.031-0.002 0.061-0.004 0.090l0-0.005c-0.002 0.022-0.003 0.048-0.003 0.075v0c-0.013 0.57 0.031 1.451 0.131 1.958 1.011 0.584 4.977 2.605 10.947 2.605 5.997 0 9.937-2.015 10.941-2.598 0.1-0.508 0.136-1.389 0.131-1.959-0.007-0.050-0.007-0.102-0.007-0.159-0.042-1.444-0.205-3.022-1.65-3.548-3.090-0.811-5.561-2.567-5.667-2.643-0.217-0.159-0.357-0.414-0.357-0.701 0-0.183 0.057-0.353 0.154-0.493l-0.002 0.003c0.151-0.221 0.401-0.364 0.685-0.364 0.181 0 0.349 0.058 0.485 0.157l-0.002-0.002c0.025 0.018 2.351 1.667 5.151 2.394 0.002 0.001 0.012 0.004 0.023 0.008l0.008 0.002 0.032 0.010c2.687 0.936 2.773 3.858 2.81 5.117v0.010l0.004 0.083c0.002 0.022 0.003 0.048 0.003 0.075v0z">
         </path>
      </symbol>
      <symbol id="icon-compare" viewBox="0 0 38 32">
         <path fill="#fff" style="fill: var(--color1, #fff)"
            d="M20.471 23.187c0 2.353 0.894 4.568 2.515 6.231 1.535 1.595 3.689 2.586 6.073 2.586s4.538-0.991 6.071-2.583l0.003-0.003c1.555-1.593 2.515-3.775 2.515-6.18 0-0.017-0-0.034-0-0.051v0.003c0-1.423-0.339-2.833-0.979-4.085l-5.854-12.337h0.983c0.551-0.007 0.994-0.455 0.994-1.007 0-0.004-0-0.008-0-0.012v0.001-1.702c0-0.004 0-0.009 0-0.013 0-0.552-0.443-1-0.993-1.007h-7.476c-0.183-1.688-2.637-3.027-5.636-3.027-3 0-5.451 1.336-5.636 3.025h-7.473c-0.551 0.006-0.996 0.455-0.996 1.007 0 0.005 0 0.009 0 0.014v-0.001 1.702c0 0.561 0.446 1.018 0.994 1.018h1.256l-5.852 12.337c-0.617 1.188-0.978 2.594-0.979 4.085v0c0 2.353 0.894 4.568 2.515 6.231 1.535 1.594 3.688 2.585 6.072 2.585s4.537-0.99 6.070-2.582l0.003-0.003c1.559-1.595 2.521-3.779 2.521-6.187 0-0.015-0-0.030-0-0.046v0.002c0-1.423-0.339-2.833-0.979-4.085l-5.854-12.337h16.96l-5.856 12.337c-0.617 1.188-0.978 2.594-0.979 4.085v0zM14.065 20.19l0.015 0.038c0.472 0.922 0.712 1.916 0.712 2.963h-12.407c0-1.047 0.237-2.042 0.712-2.965l0.008-0.015 5.483-11.552 5.478 11.529zM23.567 20.228l0.008-0.019 5.485-11.548 5.476 11.533 0.015 0.038c0.474 0.922 0.712 1.916 0.712 2.965h-12.407c0-1.054 0.239-2.052 0.712-2.97z">
         </path>
      </symbol>
      <symbol id="icon-cart" viewBox="0 0 37 32">
         <path
            d="M36.205 6.103c-0.204-0.273-0.522-0.452-0.882-0.465l-0.002-0-22-0.909c-0.632-0.027-1.16 0.44-1.187 1.043s0.46 1.112 1.088 1.137l20.511 0.848-4.032 12.063h-17.947l-3.245-16.925c-0.079-0.38-0.345-0.684-0.695-0.815l-0.008-0.002-5.309-2c-0.585-0.22-1.245 0.056-1.476 0.616-0.048 0.118-0.076 0.254-0.076 0.397 0 0.466 0.296 0.864 0.711 1.014l0.008 0.002 4.723 1.781 3.3 17.22c0.099 0.517 0.569 0.893 1.12 0.893h0.547l-1.251 3.328c-0.035 0.091-0.056 0.197-0.056 0.308 0 0.197 0.065 0.379 0.175 0.525l-0.002-0.002c0.177 0.236 0.456 0.387 0.77 0.387 0.002 0 0.003 0 0.005 0h0.877c-0.54 0.567-0.874 1.335-0.877 2.181v0.001c0 1.805 1.533 3.273 3.413 3.273 1.884 0 3.415-1.468 3.415-3.273 0-0.839-0.333-1.601-0.876-2.181h7.443c-0.54 0.567-0.873 1.335-0.876 2.181v0.001c0 1.805 1.531 3.273 3.413 3.273s3.413-1.468 3.413-3.273c0-0.839-0.333-1.601-0.876-2.181h1.067c0.524 0 0.948-0.407 0.948-0.909 0-0.501-0.424-0.909-0.948-0.909h-18.187l1.024-2.727h17.163c0.495 0 0.933-0.307 1.083-0.757l4.743-14.183c0.035-0.1 0.054-0.214 0.054-0.334 0-0.235-0.077-0.452-0.207-0.626l0.002 0.003zM14.409 30.183c-0.837 0-1.517-0.653-1.517-1.455 0-0.803 0.68-1.455 1.517-1.455 0.836 0 1.517 0.652 1.517 1.453 0 0.803-0.68 1.455-1.517 1.455zM25.409 28.728c0 0.801 0.681 1.453 1.519 1.453 0.836 0 1.517-0.652 1.517-1.453 0-0.803-0.68-1.455-1.517-1.455s-1.517 0.652-1.517 1.453z">
         </path>
      </symbol>
      <symbol id="icon-phone" viewBox="0 0 32 32">
         <path
            d="M13.216 8.064c-0.382-4.394-4.966-6.55-5.16-6.638-0.121-0.058-0.264-0.093-0.414-0.093-0.059 0-0.117 0.005-0.174 0.015l0.006-0.001c-5.292 0.878-6.088 3.958-6.12 4.086-0.018 0.071-0.028 0.151-0.028 0.235 0 0.109 0.018 0.214 0.050 0.312l-0.002-0.007c6.312 19.584 19.43 23.214 23.742 24.408 0.332 0.092 0.606 0.166 0.814 0.234 0.092 0.031 0.198 0.049 0.307 0.049 0.15 0 0.293-0.034 0.421-0.094l-0.006 0.003c0.132-0.060 3.248-1.528 4.010-6.316 0.008-0.048 0.013-0.103 0.013-0.159 0-0.165-0.040-0.321-0.111-0.458l0.003 0.006c-0.068-0.132-1.698-3.234-6.218-4.33-0.073-0.019-0.156-0.030-0.242-0.030-0.246 0-0.471 0.091-0.643 0.241l0.001-0.001c-1.426 1.218-3.396 2.516-4.246 2.65-5.698-2.786-8.88-8.132-9-9.146-0.070-0.57 1.236-2.572 2.738-4.2 0.164-0.177 0.264-0.415 0.264-0.676 0-0.032-0.001-0.063-0.004-0.094l0 0.004z">
         </path>
      </symbol>
      <symbol id="icon-arrow" viewBox="0 0 48 32">
         <path
            d="M44.507 2.981c-0.473-0.559-1.175-0.912-1.959-0.912-0.001 0-0.003 0-0.004 0h-39.050c-0.001 0-0.002 0-0.004 0-0.784 0-1.486 0.353-1.956 0.908l-0.003 0.004c-0.513 0.554-0.827 1.297-0.827 2.114 0 0.018 0 0.036 0 0.054l-0-0.003c0 0.832 0.277 1.552 0.827 2.16l19.525 21.547c0.474 0.56 1.177 0.913 1.963 0.913s1.489-0.353 1.96-0.91l0.003-0.004 19.52-21.547c0.516-0.554 0.832-1.3 0.832-2.119 0-0.014-0-0.029-0-0.043l0 0.002c0-0.015 0-0.032 0-0.049 0-0.818-0.314-1.562-0.829-2.118l0.002 0.002z">
         </path>
      </symbol>
      <symbol id="icon-arrow-button" viewBox="0 0 60 32">
         <path
            d="M59.416 17.416c0.363-0.362 0.588-0.863 0.588-1.416s-0.225-1.054-0.588-1.416l-12.728-12.728c-0.362-0.362-0.863-0.587-1.416-0.587-1.106 0-2.003 0.897-2.003 2.003 0 0.553 0.224 1.054 0.587 1.416l11.316 11.312-11.316 11.312c-0.362 0.362-0.587 0.863-0.587 1.416 0 1.106 0.897 2.003 2.003 2.003 0.553 0 1.054-0.224 1.416-0.587v0l12.728-12.728zM0 18h58v-4h-58v4z">
         </path>
      </symbol>
      <symbol id="icon-facebook" viewBox="0 0 32 32">
         <path
            d="M20.16 7.093h2.507v-4.24c-1.080-0.119-2.332-0.187-3.601-0.187-0.019 0-0.037 0-0.056 0h0.003c-3.627 0-6.107 2.213-6.107 6.267v3.493h-4.093v4.747h4.093v12.16h4.907v-12.16h4.080l0.613-4.747h-4.693v-3.027c0-1.4 0.373-2.307 2.347-2.307z">
         </path>
      </symbol>
      <symbol id="icon-youtube" viewBox="0 0 32 32">
         <path
            d="M30.667 12.947c0.004-0.117 0.007-0.254 0.007-0.391 0-1.866-0.451-3.627-1.25-5.179l0.030 0.064c-0.573-0.682-1.366-1.161-2.269-1.33l-0.024-0.004c-2.829-0.272-6.117-0.427-9.441-0.427-0.604 0-1.207 0.005-1.809 0.015l0.090-0.001c-0.537-0.010-1.17-0.016-1.805-0.016-3.279 0-6.524 0.151-9.726 0.446l0.411-0.031c-0.762 0.142-1.425 0.492-1.948 0.988l0.002-0.002c-1.2 1.107-1.333 3-1.467 4.6-0.092 1.292-0.145 2.8-0.145 4.32s0.053 3.028 0.156 4.522l-0.011-0.202c0.042 0.967 0.186 1.88 0.42 2.756l-0.020-0.089c0.172 0.704 0.501 1.315 0.95 1.817l-0.004-0.004c0.527 0.522 1.205 0.891 1.963 1.036l0.024 0.004c2.216 0.289 4.779 0.454 7.38 0.454 0.453 0 0.904-0.005 1.354-0.015l-0.067 0.001c4.667 0.067 8.76 0 13.6-0.373 0.801-0.14 1.499-0.511 2.041-1.041l-0.001 0.001c0.363-0.363 0.643-0.81 0.807-1.31l0.007-0.023c0.44-1.305 0.694-2.808 0.694-4.371 0-0.057-0-0.114-0.001-0.171l0 0.009c0.053-0.747 0.053-5.253 0.053-6.053zM12.987 19.8v-8.253l7.893 4.147c-2.213 1.227-5.133 2.613-7.893 4.107z">
         </path>
      </symbol>
      <symbol id="icon-instagram" viewBox="0 0 32 32">
         <path
            d="M16 12.693c-1.826 0-3.307 1.48-3.307 3.307s1.48 3.307 3.307 3.307c1.826 0 3.307-1.48 3.307-3.307v0c0-1.826-1.48-3.307-3.307-3.307v0zM29.24 9.427c-0.008-1.085-0.212-2.119-0.58-3.073l0.020 0.059c-0.553-1.43-1.663-2.54-3.057-3.081l-0.036-0.012c-0.894-0.348-1.929-0.552-3.010-0.56l-0.003-0c-1.72-0.093-2.227-0.093-6.573-0.093s-4.853 0-6.573 0.093c-1.085 0.008-2.119 0.212-3.073 0.58l0.059-0.020c-1.43 0.553-2.54 1.663-3.081 3.057l-0.012 0.036c-0.348 0.894-0.552 1.929-0.56 3.010l-0 0.003c-0.093 1.72-0.093 2.227-0.093 6.573s0 4.853 0.093 6.573c0.016 1.090 0.22 2.129 0.581 3.090l-0.021-0.063c0.281 0.729 0.694 1.352 1.213 1.866l0 0c0.517 0.523 1.145 0.936 1.844 1.201l0.036 0.012c0.894 0.348 1.929 0.552 3.010 0.56l0.003 0c1.72 0.093 2.227 0.093 6.573 0.093s4.853 0 6.573-0.093c1.085-0.008 2.119-0.212 3.073-0.58l-0.059 0.020c0.735-0.278 1.363-0.691 1.88-1.213l0-0c0.52-0.515 0.932-1.137 1.201-1.831l0.012-0.036c0.347-0.898 0.552-1.937 0.56-3.023l0-0.003c0.093-1.72 0.093-2.227 0.093-6.573s0-4.853-0.093-6.573zM25.853 20.093c-0.047 0.875-0.233 1.693-0.538 2.451l0.018-0.051c-0.534 1.296-1.544 2.306-2.806 2.828l-0.034 0.012c-0.714 0.271-1.54 0.44-2.402 0.466l-0.012 0h-8.16c-0.873-0.026-1.699-0.195-2.466-0.484l0.053 0.017c-0.686-0.259-1.269-0.65-1.745-1.145l-0.002-0.002c-0.471-0.466-0.843-1.031-1.083-1.661l-0.011-0.032c-0.273-0.716-0.438-1.543-0.453-2.407l-0-0.007v-8.16c0.015-0.87 0.18-1.698 0.47-2.464l-0.017 0.050c0.259-0.686 0.65-1.269 1.145-1.745l0.002-0.002c0.468-0.468 1.032-0.84 1.661-1.082l0.033-0.011c0.714-0.271 1.54-0.44 2.402-0.466l0.011-0h8.16c0.873 0.026 1.699 0.195 2.466 0.484l-0.053-0.017c0.686 0.259 1.269 0.65 1.745 1.145l0.002 0.002c0.471 0.466 0.843 1.031 1.083 1.661l0.011 0.032c0.271 0.714 0.44 1.54 0.466 2.402l0 0.011v4.080c0 2.747 0.093 3.027 0.053 4.080zM23.72 10.173c-0.329-0.874-1.006-1.551-1.858-1.873l-0.022-0.007c-0.521-0.186-1.121-0.294-1.747-0.294-0.033 0-0.066 0-0.098 0.001l0.005-0h-8c-0.663 0.007-1.294 0.133-1.876 0.359l0.036-0.012c-0.862 0.314-1.536 0.966-1.872 1.792l-0.008 0.021c-0.178 0.527-0.28 1.134-0.28 1.765 0 0.026 0 0.053 0.001 0.079l-0-0.004v8c0.014 0.664 0.14 1.295 0.36 1.879l-0.013-0.039c0.329 0.874 1.006 1.551 1.858 1.873l0.022 0.007c0.525 0.199 1.131 0.324 1.764 0.346l0.010 0h8c0.663-0.007 1.294-0.133 1.876-0.359l-0.036 0.012c0.874-0.329 1.551-1.006 1.873-1.858l0.007-0.022c0.213-0.546 0.34-1.177 0.347-1.837l0-0.003v-8c0-0.001 0-0.002 0-0.003 0-0.661-0.127-1.292-0.359-1.871l0.012 0.034zM16 21.093c0 0 0 0-0 0-2.806 0-5.080-2.274-5.080-5.080 0-0.005 0-0.009 0-0.014v0.001c0-2.813 2.28-5.093 5.093-5.093s5.093 2.28 5.093 5.093c0 2.813-2.28 5.093-5.093 5.093-0.005 0-0.009 0-0.014-0h0.001zM21.333 11.907c-0.606-0.066-1.074-0.575-1.074-1.193s0.468-1.127 1.068-1.193l0.005-0c0.606 0.066 1.074 0.575 1.074 1.193s-0.468 1.127-1.068 1.193l-0.005 0z">
         </path>
      </symbol>
      <symbol id="icon-pin" viewBox="0 0 32 32">
         <path
            d="M4 12c0-6.627 5.373-12 12-12s12 5.373 12 12v0c0 8-12 20-12 20s-12-12-12-20zM11 12c0 2.761 2.239 5 5 5s5-2.239 5-5v0c0-2.761-2.239-5-5-5s-5 2.239-5 5v0z">
         </path>
      </symbol>
      <symbol id="icon-clock" viewBox="0 0 32 32">
         <path
            d="M16 2.667c-7.333 0-13.333 6-13.333 13.333s6 13.333 13.333 13.333 13.333-6 13.333-13.333-6-13.333-13.333-13.333zM18.667 20.933c-0.667 0.4-1.467 0.133-1.867-0.533l-2-3.733c-0.133-0.267-0.133-0.4-0.133-0.667v-6.667c0-0.8 0.533-1.333 1.333-1.333s1.333 0.533 1.333 1.333v6.267l1.867 3.467c0.267 0.667 0.133 1.467-0.533 1.867z">
         </path>
      </symbol>
      <symbol id="icon-envelope" viewBox="0 0 32 32">
         <path
            d="M0.539 5.354l-0.019-0.019q-0.138-0.144-0.25-0.286c-0.127 0.228-0.203 0.501-0.203 0.791v20.313c0 0.001 0 0.001 0 0.002 0 0.207 0.037 0.404 0.105 0.587l-0.004-0.012c0.121-0.111 0.254-0.224 0.396-0.339l12.698-10.5zM14 15.279l0.299 0.25 1.049 0.871c0.134 0.135 0.319 0.218 0.524 0.218s0.39-0.083 0.524-0.218l0.019-0.019 1.063-0.855 13.354-10.834c0.098-0.092 0.188-0.19 0.27-0.294l0.004-0.006c-0.245-0.148-0.541-0.235-0.858-0.235-0.003 0-0.006 0-0.009 0h-28.49c-0 0-0 0-0.001 0-0.302 0-0.584 0.081-0.827 0.223l0.008-0.004c0.082 0.109 0.164 0.205 0.251 0.296l-0.001-0.001z">
         </path>
         <path
            d="M30.846 27.085l-13.078-10.596-0.725 0.584c-0.302 0.296-0.716 0.479-1.173 0.479s-0.871-0.183-1.174-0.479l0 0-0.696-0.579-12.842 10.621q-0.25 0.2-0.432 0.375c0.28 0.22 0.637 0.352 1.025 0.352h28.491c0 0 0.001 0 0.001 0 0.385 0 0.741-0.129 1.025-0.347l-0.004 0.003c-0.124-0.155-0.261-0.291-0.412-0.411l-0.005-0.004zM31.75 5.082c-0.093 0.109-0.187 0.208-0.287 0.301l-0.002 0.002-0.026 0.022-12.923 10.479 12.925 10.471c0.144 0.117 0.273 0.237 0.393 0.365l0.002 0.002c0.064-0.17 0.101-0.367 0.101-0.573 0-0 0-0.001 0-0.001v0-20.313c0-0.001 0-0.002 0-0.004 0-0.275-0.068-0.534-0.187-0.762l0.004 0.009z">
         </path>
         <path fill="#fff" style="fill: var(--color2, #fff)" d="M13.998 15.279v0z"></path>
      </symbol>
      <symbol id="icon-delivery" viewBox="0 0 32 32">
         <path stroke-linejoin="round" stroke-linecap="round" stroke-miterlimit="4" stroke-width="1.8824"
            d="M18.824 5.647h-16.941v15.059h16.941v-15.059zM18.824 11.294h5.378l4.034 3.529v5.882h-9.412v-9.412zM6.588 26.353c1.559 0 2.824-1.264 2.824-2.824s-1.264-2.824-2.824-2.824v0c-1.559 0-2.824 1.264-2.824 2.824s1.264 2.824 2.824 2.824v0zM21.647 26.353c1.559 0 2.824-1.264 2.824-2.824s-1.264-2.824-2.824-2.824v0c-1.559 0-2.824 1.264-2.824 2.824s1.264 2.824 2.824 2.824v0z">
         </path>
      </symbol>
      <symbol id="icon-checkmark" viewBox="0 0 32 32">
         <path
            d="M16 4c6.627 0 12 5.373 12 12s-5.373 12-12 12v0c-6.627 0-12-5.373-12-12s5.373-12 12-12v0zM20.24 12.328l-5.74 5.756-2.792-2.792c-0.181-0.181-0.431-0.293-0.708-0.293-0.553 0-1.001 0.448-1.001 1.001 0 0.276 0.112 0.527 0.293 0.708l3.5 3.5c0.181 0.181 0.431 0.294 0.708 0.294s0.527-0.112 0.708-0.294l6.448-6.468c0.173-0.18 0.28-0.424 0.28-0.694 0-0.552-0.448-1-1-1-0.271 0-0.516 0.107-0.696 0.282l0-0z">
         </path>
      </symbol>
      <symbol id="icon-favorite" viewBox="0 0 32 32">
         <path
            d="M16 26.686c-0.002 0-0.005 0-0.007 0-0.768 0-1.488-0.202-2.112-0.555l0.021 0.011c-6.84-3.834-10.607-8.558-10.607-13.3 0-4.224 2.955-7.532 6.727-7.532 2.361 0.002 4.486 1.009 5.972 2.616l0.005 0.005c1.491-1.612 3.616-2.619 5.977-2.621h0c3.772 0 6.727 3.309 6.727 7.533 0 4.742-3.767 9.466-10.607 13.3-0.602 0.342-1.323 0.544-2.091 0.544-0.002 0-0.005 0-0.007 0h0zM10.023 6.81c-2.98 0-5.227 2.593-5.227 6.032 0 4.176 3.495 8.434 9.839 11.991 0.393 0.223 0.864 0.354 1.364 0.354s0.971-0.131 1.379-0.361l-0.014 0.007c6.345-3.557 9.84-7.816 9.84-11.991 0-3.439-2.247-6.032-5.227-6.032-2.188 0.007-4.126 1.067-5.337 2.699l-0.013 0.018c-0.132 0.203-0.357 0.335-0.613 0.335-0.005 0-0.010-0-0.015-0h0.001c-0.259-0.001-0.487-0.132-0.621-0.332l-0.002-0.003c-1.225-1.651-3.165-2.71-5.353-2.716h-0.001z">
         </path>
      </symbol>
      <symbol id="icon-balance" viewBox="0 0 32 32">
         <path fill="#787878" style="fill: var(--color1, #787878)"
            d="M11.992 32h8.013c0.551-0.001 0.998-0.447 1.001-0.997v-2.287c0-0.002 0-0.004 0-0.007 0-0.393-0.231-0.733-0.564-0.891l-0.006-0.003-3.947-1.877c-0.127-0.063-0.276-0.1-0.433-0.1-0.152 0-0.295 0.034-0.424 0.095l0.006-0.003-4.062 1.88c-0.345 0.162-0.58 0.505-0.584 0.903v2.288c0 0.55 0.452 1 1.001 1zM19.004 30.001h-6.008v-0.649l3.053-1.417 2.955 1.406v0.661zM15.949 5.976c0.022 0.001 0.049 0.001 0.075 0.001 1.651 0 2.989-1.338 2.989-2.989s-1.338-2.989-2.989-2.989c-0.026 0-0.053 0-0.079 0.001l0.004-0c-1.653 0-2.999 1.342-2.999 2.985 0 1.649 1.346 2.993 2.999 2.993zM15.949 1.999c0.546 0.001 0.989 0.444 0.989 0.99s-0.443 0.99-0.99 0.99c-0 0-0.001 0-0.001 0h0c-0.547 0-0.99-0.443-0.99-0.99s0.443-0.99 0.99-0.99v0zM26.003 25.992c3.418 0 5.997-2.573 5.997-5.982 0-0.55-0.452-0.998-1.001-0.998h-9.992c-0.551 0.001-0.998 0.447-1.001 0.997v0c0 3.409 2.579 5.982 5.997 5.982zM29.884 21.009c-0.414 1.773-1.916 2.985-3.881 2.985s-3.467-1.205-3.881-2.985h7.763z">
         </path>
         <path fill="#787878" style="fill: var(--color1, #787878)"
            d="M30.999 20.939c0.002 0 0.004 0 0.006 0 0.55 0 0.996-0.446 0.996-0.996 0-0.103-0.016-0.203-0.045-0.297l0.002 0.007-4.971-16.499c-0.142-0.392-0.511-0.667-0.944-0.667-0.553 0-1.001 0.448-1.001 1.001 0 0.085 0.011 0.168 0.031 0.247l-0.002-0.007 4.969 16.499c0.132 0.433 0.527 0.712 0.96 0.712z">
         </path>
         <path fill="#787878" style="fill: var(--color1, #787878)"
            d="M21.007 20.939c0.433 0 0.828-0.28 0.96-0.712l4.969-16.493c0.028-0.087 0.044-0.187 0.044-0.292 0-0.448-0.298-0.827-0.707-0.949l-0.007-0.002c-0.086-0.027-0.184-0.042-0.287-0.042-0.449 0-0.83 0.296-0.958 0.703l-0.002 0.007-4.969 16.493c-0.027 0.086-0.042 0.185-0.042 0.288 0 0.551 0.447 0.998 0.998 0.998 0 0 0.001 0 0.001 0h-0zM5.997 25.992c3.418 0 5.997-2.573 5.997-5.982 0-0.55-0.452-0.998-1.001-0.998h-9.992c-0.551 0.001-0.998 0.447-1.001 0.997v0c0 3.409 2.579 5.982 5.997 5.982zM9.879 21.009c-0.414 1.773-1.916 2.985-3.881 2.985s-3.467-1.205-3.881-2.985h7.763z">
         </path>
         <path fill="#787878" style="fill: var(--color1, #787878)"
            d="M10.993 20.939c0.003 0 0.007 0 0.011 0 0.548 0 0.992-0.444 0.992-0.992 0-0.106-0.016-0.207-0.047-0.303l0.002 0.007-4.969-16.489c-0.13-0.415-0.511-0.71-0.961-0.71-0.102 0-0.201 0.015-0.294 0.044l0.007-0.002c-0.415 0.125-0.712 0.504-0.712 0.952 0 0.104 0.016 0.204 0.045 0.298l-0.002-0.007 4.969 16.493c0.132 0.431 0.527 0.712 0.958 0.712z">
         </path>
         <path fill="#787878" style="fill: var(--color1, #787878)"
            d="M1.001 20.939c0.433 0 0.826-0.28 0.958-0.712l4.969-16.493c0.023-0.080 0.036-0.172 0.036-0.266 0-0.552-0.447-1-1-1-0.442 0-0.817 0.287-0.949 0.685l-0.002 0.007-4.969 16.491c-0.027 0.086-0.042 0.185-0.042 0.288 0 0.551 0.447 0.998 0.998 0.998 0 0 0.001 0 0.001 0h-0zM19.004 4.023h7.010c0.552-0.001 0.999-0.448 1.001-0.999v-0c0-0.55-0.45-1-1.001-1h-7.010c-0.551 0.001-0.998 0.447-1.001 0.997v0c0 0.552 0.452 1.001 1.001 1.001z">
         </path>
         <path fill="#787878" style="fill: var(--color1, #787878)"
            d="M5.984 4.023h8.013c0.552-0.001 0.999-0.448 1.001-0.999v-0c0-0.55-0.452-1-1.001-1h-8.013c-0.551 0.001-0.998 0.447-1.001 0.997v0c0 0.552 0.452 1.001 1.001 1.001zM16 28.004c0.552-0.001 0.999-0.448 1.001-0.999v-21.982c-0.033-0.527-0.469-0.942-1.001-0.942s-0.968 0.415-1.001 0.939l-0 0.003v21.982c0 0.55 0.452 0.998 1.001 0.998z">
         </path>
      </symbol>
      <symbol id="icon-list" viewBox="0 0 32 32">
         <path
            d="M4 17.333h2.667v-2.667h-2.667v2.667zM4 22.667h2.667v-2.667h-2.667v2.667zM4 12h2.667v-2.667h-2.667v2.667zM9.333 17.333h18.667v-2.667h-18.667v2.667zM9.333 22.667h18.667v-2.667h-18.667v2.667zM9.333 9.333v2.667h18.667v-2.667h-18.667z">
         </path>
      </symbol>
   </defs>
</svg>